<?xml version="1.0" standalone="no"?>
<!DOCTYPE svg PUBLIC "-//W3C//DTD SVG 20010904//EN"
 "http://www.w3.org/TR/2001/REC-SVG-20010904/DTD/svg10.dtd">
<svg version="1.0" xmlns="http://www.w3.org/2000/svg"
 width="1500.000000pt" height="1500.000000pt" viewBox="0 0 1500.000000 1500.000000"
 preserveAspectRatio="xMidYMid meet">
<metadata>
Created by potrace 1.11, written by Peter Selinger 2001-2013
</metadata>
<g transform="translate(0.000000,1500.000000) scale(0.100000,-0.100000)"
fill="#000000" stroke="none">
<path d="M8129 12958 c-2 -8 -79 -383 -85 -418 -3 -14 -11 -52 -19 -85 -7 -33
-16 -78 -19 -100 -4 -22 -13 -67 -20 -100 -8 -33 -17 -78 -20 -100 -4 -22 -11
-56 -16 -75 -5 -19 -12 -51 -15 -70 -3 -19 -8 -42 -10 -50 -2 -8 -7 -28 -9
-45 -3 -16 -8 -42 -12 -57 -3 -16 -4 -28 -2 -28 2 0 58 -12 123 -26 66 -14
131 -28 145 -31 197 -41 311 -37 427 16 123 58 218 190 264 369 66 260 34 446
-99 580 -55 54 -141 106 -222 132 -36 11 -386 90 -402 90 -4 0 -8 -1 -9 -2z
m361 -219 c105 -34 190 -103 232 -187 20 -41 23 -62 23 -162 -1 -131 -19 -219
-69 -319 -60 -122 -159 -182 -306 -184 -61 -1 -276 38 -293 52 -4 4 -3 29 3
57 5 27 11 58 13 69 3 11 8 38 12 60 5 22 9 45 11 50 3 12 44 211 50 245 3 14
20 101 39 193 19 93 35 172 35 176 0 8 185 -29 250 -50z"/>
<path d="M5610 12650 c-17 -10 -291 -140 -295 -140 -2 0 -65 -29 -140 -65 -75
-36 -140 -65 -146 -65 -5 0 -9 -4 -9 -9 0 -7 141 -333 217 -501 17 -36 76
-171 133 -300 57 -129 106 -239 110 -243 6 -7 57 15 265 113 209 99 283 134
323 151 23 10 42 23 42 28 0 20 -50 122 -57 118 -5 -3 -44 -22 -88 -42 -44
-21 -116 -54 -160 -75 -198 -93 -236 -110 -243 -110 -4 0 -32 55 -62 123 -66
150 -92 210 -97 220 -2 4 6 11 19 16 13 5 81 37 153 71 71 33 164 77 207 97
43 20 78 39 78 43 0 4 -11 33 -25 64 l-25 56 -32 -14 c-18 -7 -71 -31 -118
-54 -229 -108 -302 -142 -310 -142 -4 0 -28 46 -53 103 -25 56 -56 127 -70
157 l-25 56 244 114 c134 62 244 117 244 121 0 20 -46 119 -55 118 -5 0 -17
-4 -25 -9z"/>
<path d="M9898 11928 c-118 -178 -261 -390 -316 -473 -93 -139 -99 -151 -83
-165 17 -15 66 -50 88 -64 8 -4 53 54 134 176 67 101 123 185 125 187 3 4 157
-103 179 -125 8 -9 13 -19 11 -22 -2 -4 -7 -52 -11 -107 -3 -55 -8 -118 -10
-140 -5 -46 -16 -186 -18 -230 -1 -25 7 -35 58 -71 33 -23 62 -41 66 -39 3 2
7 28 8 57 1 29 4 71 6 93 2 22 7 85 11 140 4 55 8 111 9 125 2 14 3 46 4 72
l1 47 32 -10 c56 -16 153 -11 212 11 159 60 253 250 205 414 -27 90 -81 161
-171 224 -18 13 -95 68 -172 123 -76 54 -142 99 -145 99 -4 0 -104 -145 -223
-322z m388 41 c159 -113 195 -160 198 -254 2 -36 -34 -109 -71 -147 -58 -60
-140 -76 -217 -44 -21 9 -85 50 -144 92 -59 42 -112 78 -118 81 -13 5 213 353
229 353 5 0 60 -37 123 -81z"/>
<path d="M3888 11557 c-20 -23 -46 -54 -57 -68 l-19 -25 162 -365 c90 -200
173 -383 185 -406 12 -24 19 -43 15 -43 -3 0 -85 27 -182 59 -188 64 -640 211
-646 211 -2 0 -29 -30 -61 -66 l-58 -65 35 -32 c130 -120 239 -220 255 -235
29 -25 193 -174 217 -197 12 -11 64 -58 116 -105 52 -47 104 -94 116 -105 58
-55 94 -85 103 -85 5 0 28 24 51 52 l42 53 -39 34 c-46 42 -205 187 -242 221
-14 14 -64 59 -110 100 -46 41 -97 88 -115 104 -17 16 -65 56 -106 88 -41 33
-77 62 -79 64 -2 2 25 -8 60 -22 35 -15 141 -51 234 -81 94 -30 236 -76 317
-103 l148 -48 50 56 c27 31 50 60 50 64 0 11 -259 596 -299 673 l-36 70 85
-85 c82 -82 141 -138 260 -244 30 -27 80 -72 110 -100 30 -28 93 -85 139 -126
l83 -75 44 50 c43 49 53 70 35 77 -5 2 -57 48 -117 103 -59 55 -131 120 -158
145 -28 25 -62 56 -77 70 -25 24 -175 160 -209 190 -15 13 -127 116 -232 213
-17 15 -31 27 -32 27 0 0 -18 -19 -38 -43z"/>
<path d="M11425 10749 c-216 -21 -492 -214 -577 -402 -61 -133 -56 -283 12
-418 133 -262 356 -355 618 -258 206 76 392 245 455 414 29 78 26 221 -6 306
-93 246 -281 380 -502 358z m164 -150 c77 -25 147 -95 199 -198 33 -68 37 -83
37 -155 0 -70 -4 -89 -30 -139 -104 -202 -424 -375 -603 -326 -149 40 -275
232 -258 390 11 114 96 228 240 323 163 109 297 143 415 105z"/>
<path d="M6553 10445 c-13 -19 -23 -37 -23 -40 0 -3 -7 -13 -16 -22 -25 -28
-223 -333 -215 -333 3 0 -1 -6 -9 -13 -21 -17 -60 -74 -60 -87 0 -6 -7 -13
-15 -16 -8 -4 -15 -13 -15 -21 0 -8 -6 -21 -12 -28 -23 -25 -33 -40 -47 -67
-8 -16 -18 -28 -23 -28 -4 0 -8 -4 -8 -9 0 -12 -61 -105 -72 -109 -4 -2 -8 -8
-8 -13 0 -18 -123 -194 -134 -191 -6 2 -8 0 -4 -3 7 -7 -18 -65 -32 -75 -11
-8 -90 -131 -90 -140 0 -5 -8 -14 -17 -19 -10 -6 -15 -11 -10 -11 4 0 0 -11
-9 -25 -9 -14 -20 -22 -25 -19 -5 3 -9 2 -8 -3 3 -10 -12 -44 -25 -61 -6 -7
-15 -18 -21 -25 -5 -7 -11 -19 -13 -27 -2 -8 -8 -18 -14 -21 -9 -6 -28 -36
-44 -69 -4 -8 -14 -19 -21 -23 -7 -5 -11 -12 -8 -18 4 -5 1 -9 -4 -9 -6 0 -11
-7 -11 -15 0 -8 -4 -15 -10 -15 -5 0 -10 -6 -10 -13 0 -7 -9 -18 -20 -25 -12
-7 -18 -16 -16 -21 3 -5 -2 -18 -12 -29 -10 -11 -27 -37 -37 -56 -11 -20 -23
-36 -27 -36 -5 0 -8 -7 -8 -15 0 -8 -5 -15 -10 -15 -10 0 -35 -48 -32 -62 1
-5 -2 -8 -6 -8 -10 0 -62 -77 -62 -91 0 -5 -4 -9 -8 -9 -5 0 -15 -12 -23 -27
-8 -16 -22 -37 -31 -47 -10 -10 -15 -23 -12 -28 3 -4 1 -8 -5 -8 -6 0 -18 -15
-27 -32 -9 -18 -23 -37 -31 -41 -7 -5 -11 -12 -8 -16 2 -5 -4 -16 -15 -26 -11
-10 -20 -24 -20 -32 0 -7 -4 -13 -10 -13 -5 0 -10 -6 -10 -13 0 -7 -9 -23 -20
-35 -11 -12 -20 -26 -20 -32 0 -5 -4 -10 -10 -10 -5 0 -10 -6 -10 -13 0 -7 -9
-23 -20 -35 -12 -12 -18 -22 -15 -22 3 0 -4 -10 -15 -22 -11 -13 -23 -33 -26
-45 -4 -13 -10 -23 -14 -23 -4 0 -13 -13 -20 -30 -7 -17 -17 -27 -24 -23 -6 3
-8 3 -4 -2 5 -5 -4 -23 -18 -42 -14 -18 -22 -33 -19 -33 3 0 1 -6 -5 -12 -39
-47 -50 -63 -55 -79 -4 -11 -11 -19 -17 -19 -6 0 -9 -3 -5 -6 3 -4 1 -12 -6
-20 -29 -33 -37 -44 -37 -54 0 -5 -5 -10 -11 -10 -5 0 -7 -4 -4 -10 3 -5 2
-10 -2 -10 -5 0 -17 -16 -27 -35 -11 -19 -23 -35 -28 -35 -5 0 -6 -4 -3 -10 3
-5 1 -10 -4 -10 -6 0 -11 -5 -11 -11 0 -10 -15 -30 -61 -86 -5 -7 -7 -13 -4
-13 2 0 -5 -12 -18 -26 -12 -14 -21 -28 -19 -30 1 -3 -3 -11 -10 -19 -23 -25
-33 -39 -47 -67 -8 -16 -18 -28 -23 -28 -5 0 -7 -4 -4 -9 3 -5 -1 -12 -10 -15
-8 -3 -12 -10 -9 -16 3 -5 1 -10 -4 -10 -6 0 -11 -7 -11 -15 0 -8 -4 -15 -10
-15 -5 0 -10 -5 -10 -11 0 -13 -36 -60 -42 -54 -2 2 -4 -4 -5 -14 -1 -17 22
-18 420 -18 356 0 422 -2 423 -14 1 -8 2 -16 3 -19 5 -13 5 -100 1 -100 -7 0
-3 -77 5 -90 3 -6 2 -10 -3 -10 -5 0 -7 -12 -5 -27 2 -16 4 -44 3 -63 -5 -119
-4 -168 2 -163 5 2 4 -7 -1 -20 -5 -13 -5 -30 -1 -37 5 -8 4 -22 -1 -31 -6
-11 -5 -20 1 -24 5 -3 6 -13 3 -22 -8 -21 -8 -81 0 -89 3 -4 2 -14 -3 -23 -5
-10 -5 -23 0 -31 4 -7 6 -18 4 -25 -8 -20 -9 -183 -2 -178 5 2 4 -7 -1 -20 -5
-13 -5 -30 -1 -37 5 -8 4 -22 -1 -31 -6 -11 -5 -20 1 -24 5 -3 6 -13 3 -22 -8
-21 -8 -81 0 -89 3 -4 2 -14 -3 -23 -5 -10 -5 -23 0 -31 4 -7 6 -18 4 -25 -8
-20 -9 -183 -2 -178 5 2 4 -7 -1 -20 -5 -13 -5 -30 -1 -37 5 -8 4 -22 -1 -31
-6 -11 -5 -20 1 -24 5 -3 6 -13 3 -22 -8 -21 -8 -81 0 -89 3 -4 2 -14 -3 -23
-5 -10 -5 -23 0 -31 4 -7 6 -18 4 -25 -8 -20 -9 -183 -2 -178 5 2 4 -7 -1 -20
-5 -13 -5 -30 -1 -37 5 -8 5 -21 0 -31 -5 -9 -6 -19 -3 -23 3 -3 1001 -6 2217
-6 l2212 0 -1 1020 0 1020 25 1 c14 0 142 2 285 3 143 2 265 4 270 6 6 1 15 1
20 -1 21 -6 245 -5 245 1 0 4 -62 102 -137 219 -293 449 -452 693 -578 886
l-130 200 0 963 1 962 -31 0 c-16 0 -211 2 -432 3 l-402 2 0 -50 c-1 -71 -1
-83 -1 -97 1 -13 0 -115 -1 -243 0 -5 2 -54 3 -108 2 -53 0 -96 -3 -95 -4 2
-47 64 -95 139 -49 74 -95 144 -102 155 -7 10 -22 34 -34 53 -46 72 -227 347
-243 369 l-16 22 -847 0 -847 0 -22 -35z"/>
<path d="M2895 9493 c-275 -23 -451 -233 -456 -547 -4 -236 190 -431 497 -501
77 -17 205 -23 269 -12 182 31 319 170 371 377 66 262 -33 471 -280 589 -55
27 -128 56 -161 65 -66 17 -193 32 -240 29z m179 -168 c255 -64 397 -195 398
-367 1 -162 -72 -297 -190 -355 -52 -25 -67 -28 -162 -28 -234 1 -457 111
-531 262 -19 39 -24 64 -24 133 0 187 97 329 249 366 65 15 173 11 260 -11z"/>
<path d="M12489 8806 c-2 -2 -38 -7 -79 -11 -41 -4 -77 -8 -80 -10 -3 -2 -32
-6 -65 -10 -33 -3 -73 -8 -90 -10 -26 -4 -162 -22 -310 -41 -22 -3 -53 -7 -69
-10 -15 -3 -51 -7 -79 -9 -27 -3 -57 -7 -66 -9 -9 -3 -43 -8 -76 -11 -33 -3
-69 -8 -80 -10 -11 -2 -33 -4 -48 -4 l-28 -1 7 -62 c4 -35 7 -69 7 -76 0 -10
11 -12 36 -8 20 2 61 8 91 11 30 4 66 9 80 11 24 4 95 13 305 39 28 4 61 8 75
10 14 2 43 6 65 9 22 3 60 8 85 11 25 4 73 13 108 21 35 8 66 14 68 14 3 0
-31 -27 -76 -60 -66 -50 -422 -340 -440 -360 -3 -3 -25 -21 -50 -41 -25 -20
-55 -45 -67 -55 -12 -11 -63 -53 -113 -94 l-92 -75 6 -65 c3 -36 6 -71 6 -79
0 -13 61 -12 165 4 17 2 64 9 105 14 71 10 106 14 203 26 40 5 93 12 147 20
14 2 97 13 185 25 88 11 180 23 205 27 25 3 56 7 70 8 14 2 28 3 33 4 6 1 3
49 -8 131 -2 17 2 17 -200 -10 -77 -10 -162 -21 -190 -24 -47 -6 -96 -12 -155
-21 -14 -2 -50 -7 -80 -10 -30 -3 -62 -8 -70 -10 -8 -2 -39 -7 -68 -10 -30 -4
-76 -12 -103 -19 -27 -7 -49 -12 -49 -10 0 2 30 24 68 51 37 26 69 50 72 53 3
3 57 48 120 100 63 52 120 99 126 105 6 5 111 93 233 194 l223 185 -7 65 c-4
36 -7 72 -8 79 0 11 -38 18 -48 8z"/>
<path d="M3270 7465 c-41 -8 -94 -17 -118 -20 -24 -3 -64 -10 -90 -15 -26 -4
-67 -11 -92 -15 -25 -3 -56 -8 -70 -10 -14 -3 -38 -7 -55 -9 -16 -3 -88 -14
-160 -26 -71 -12 -141 -23 -155 -25 -14 -2 -45 -7 -70 -11 -25 -4 -52 -8 -60
-9 -8 -1 -39 -6 -67 -10 l-52 -8 5 -36 c4 -20 8 -43 9 -51 2 -8 4 -25 4 -38 1
-21 4 -22 39 -17 93 15 159 25 187 30 17 3 46 8 65 10 19 3 44 8 56 10 53 11
122 16 127 8 3 -4 8 -35 12 -68 3 -32 8 -62 10 -65 1 -3 6 -27 9 -55 6 -51 16
-117 40 -262 14 -88 12 -97 -19 -100 -11 -2 -76 -12 -145 -23 -69 -11 -143
-23 -165 -26 -120 -18 -120 -18 -121 -48 -1 -16 3 -48 8 -72 l10 -45 46 6 c26
3 54 7 62 10 8 2 35 7 60 10 25 3 68 10 95 15 28 5 68 12 90 15 48 7 54 8 220
35 72 12 146 23 165 26 19 2 46 6 60 9 14 3 43 7 65 10 22 3 51 8 65 10 14 3
41 7 60 11 129 22 120 14 107 89 -3 17 -6 40 -6 52 -1 26 24 28 -256 -17 -99
-16 -197 -31 -217 -34 -41 -6 -37 -13 -53 99 -3 22 -13 83 -21 135 -22 142
-44 294 -44 306 0 6 32 16 73 23 39 6 90 14 112 17 314 49 310 48 310 74 -1
14 -4 46 -9 73 -8 54 -6 53 -126 32z"/>
<path d="M11436 6912 c-3 -9 -41 -152 -86 -317 -45 -165 -85 -313 -90 -328 -8
-24 -6 -29 16 -37 13 -5 35 -12 47 -14 12 -2 30 -7 39 -11 13 -5 19 2 28 32 6
21 38 137 71 258 33 121 62 227 65 236 4 15 9 16 52 2 26 -8 72 -21 102 -29
30 -8 91 -26 136 -40 l81 -24 -63 -226 c-86 -312 -84 -277 -11 -297 34 -9 62
-15 63 -14 1 1 32 112 69 247 37 135 69 246 70 248 4 4 301 -79 316 -89 9 -5
-1 -54 -36 -181 -57 -208 -60 -219 -80 -285 -8 -28 -15 -56 -15 -62 0 -11 124
-53 127 -42 2 3 17 58 33 121 17 63 38 140 46 170 9 30 17 62 19 70 2 8 22 82
45 164 23 81 40 149 38 150 -4 3 -349 104 -393 116 -36 9 -655 189 -672 195
-7 2 -14 -4 -17 -13z"/>
<path d="M3863 4590 c-4 -4 -25 -13 -45 -20 -21 -6 -38 -15 -38 -20 0 -5 -8
-11 -17 -15 -18 -6 -86 -85 -82 -95 1 -3 -4 -16 -11 -30 -35 -63 -16 -207 35
-266 14 -16 25 -32 25 -36 0 -4 9 -10 20 -13 11 -4 18 -10 16 -14 -3 -4 11
-13 30 -20 18 -7 34 -17 34 -22 0 -6 5 -7 10 -4 6 4 17 1 25 -5 12 -10 15 -10
15 1 0 10 3 10 8 3 8 -13 201 -11 211 3 3 4 17 9 31 11 33 4 114 85 140 139
22 46 29 180 10 199 -5 5 -11 20 -13 33 -6 40 -102 127 -155 141 -26 7 -68 18
-93 26 -46 15 -142 17 -156 4z"/>
<path d="M11260 4584 c-127 -46 -200 -152 -197 -285 3 -108 65 -203 162 -248
47 -22 64 -24 160 -23 104 2 120 4 158 22 25 12 121 100 109 100 -2 0 1 6 7
13 6 8 8 17 4 20 -3 4 -1 7 6 7 7 0 10 4 6 9 -3 5 -1 12 5 16 11 7 14 158 3
169 -4 3 -8 14 -9 24 -2 9 -8 18 -13 20 -6 2 -11 10 -11 17 0 20 -77 94 -105
101 -14 3 -28 10 -31 15 -3 5 -18 9 -35 9 -16 0 -29 4 -29 8 0 5 -6 9 -12 10
-123 12 -136 11 -178 -4z"/>
<path d="M5648 3574 c-5 -4 -8 -35 -8 -70 l0 -62 68 2 c179 5 365 -68 412
-160 61 -124 -61 -287 -202 -271 -38 5 -185 45 -209 58 -13 7 -19 2 -27 -19
-24 -63 -32 -96 -25 -102 5 -4 60 -24 124 -44 205 -65 264 -147 214 -296 -17
-51 -65 -102 -114 -122 -42 -17 -141 -11 -216 12 -84 27 -131 50 -208 102 -33
22 -60 38 -61 36 -1 -2 -16 -25 -35 -51 -18 -26 -30 -54 -28 -61 10 -26 159
-115 243 -145 299 -108 507 -33 577 209 29 99 2 203 -72 278 -28 27 -38 43
-29 46 113 33 165 71 202 150 30 63 37 94 37 163 0 191 -217 338 -516 350 -66
3 -123 2 -127 -3z"/>
<path d="M9233 3509 c-121 -30 -195 -79 -247 -163 -83 -131 -92 -291 -30 -505
103 -353 295 -548 522 -528 297 26 438 256 367 602 -10 48 -14 65 -38 136
-119 352 -329 521 -574 458z m183 -147 c76 -39 149 -136 206 -275 144 -350
113 -572 -87 -629 -62 -18 -116 -13 -175 17 -53 27 -86 60 -132 135 -117 187
-183 460 -147 603 34 137 208 214 335 149z"/>
<path d="M7615 3275 c-80 -18 -146 -54 -206 -115 -111 -110 -167 -277 -171
-503 -3 -226 54 -403 162 -501 36 -32 129 -86 147 -86 5 0 22 -3 39 -6 201
-38 378 45 456 212 65 138 56 314 -21 436 -112 177 -396 203 -585 55 l-39 -31
7 64 c15 153 72 258 170 315 81 48 228 48 331 1 l54 -24 20 61 c12 33 20 61
18 62 -21 16 -123 55 -157 60 -72 13 -171 13 -225 0z m190 -564 c86 -40 126
-126 120 -255 -9 -168 -99 -266 -242 -266 -100 1 -178 53 -229 152 -30 60 -54
157 -54 225 l0 51 61 41 c34 23 64 41 68 41 3 1 29 7 56 15 73 20 172 18 220
-4z"/>
</g>
</svg>
